# xmcd
# 
# Track frame offsets:
#     150
#     17897
#     40022
#     57167
#     82190
#     98630
#     121552
#     141115
#     162447
#     181652
#     200720
# 
# Disc length: 2979
# 
# Revision: 1
# Processed by: cddbd v1.5.2PL0 Copyright (c) Steve Scherf et al.
# Submitted via: fre:ac v1.0.31
# 
DISCID=8a0ba10b
DTITLE=陳百強 - 凝望
DYEAR=1986
DGENRE=Pop
TTITLE0=陳百強
TTITLE1=超越時空
TTITLE2=迷失中有著你
TTITLE3=我愛上課
TTITLE4=沒法可續緣
TTITLE5=至愛
TTITLE6=心願
TTITLE7=愛沒有不對
TTITLE8=您令我心醉
TTITLE9=散.聚
TTITLE10=Greatest Love of All
EXTD=DMI
EXTT0=
EXTT1=
EXTT2=
EXTT3=
EXTT4=
EXTT5=
EXTT6=
EXTT7=
EXTT8=
EXTT9=
EXTT10=
PLAYORDER=
